<?xml version="1.0" encoding="utf-8"?>
<!-- Generator: Adobe Illustrator 23.0.4, SVG Export Plug-In . SVG Version: 6.00 Build 0)  -->
<svg version="1.1" id="Layer_1" xmlns="http://www.w3.org/2000/svg" xmlns:xlink="http://www.w3.org/1999/xlink" x="0px" y="0px"
	 viewBox="0 0 133.95 51.55" style="enable-background:new 0 0 133.95 51.55;" xml:space="preserve">
<style type="text/css">
	.st0{fill:#003D47;}
</style>
<g>
	<g>
		<g>
			<path class="st0" d="M54.18,38.78c-0.31,0-0.61-0.05-0.88-0.15c-0.27-0.1-0.52-0.23-0.73-0.4c-0.21-0.17-0.38-0.36-0.5-0.59
				s-0.18-0.47-0.18-0.72h1.28c0,0.05,0.02,0.11,0.07,0.18s0.12,0.13,0.2,0.19c0.09,0.06,0.19,0.11,0.32,0.16
				c0.12,0.04,0.26,0.06,0.42,0.06c0.25,0,0.45-0.03,0.6-0.09s0.25-0.12,0.33-0.19c0.07-0.07,0.13-0.16,0.17-0.28
				c0-0.07,0-0.13-0.01-0.2s-0.04-0.13-0.08-0.19c-0.08-0.09-0.21-0.17-0.4-0.22s-0.43-0.08-0.71-0.08c-0.21,0-0.41-0.02-0.58-0.06
				c-0.17-0.04-0.32-0.09-0.45-0.15s-0.24-0.12-0.34-0.2c-0.1-0.07-0.17-0.15-0.24-0.22c-0.12-0.13-0.22-0.28-0.29-0.42
				c-0.07-0.15-0.12-0.29-0.14-0.42c-0.03-0.13-0.04-0.25-0.05-0.34c0-0.1,0-0.17,0-0.21s0.01-0.1,0.02-0.19
				c0.01-0.09,0.03-0.18,0.07-0.29s0.09-0.22,0.15-0.34s0.15-0.24,0.26-0.35c0.41-0.41,0.98-0.62,1.71-0.62
				c0.72,0,1.28,0.21,1.68,0.63c0.14,0.15,0.25,0.3,0.33,0.45c0.08,0.16,0.14,0.3,0.17,0.44c0.03,0.13,0.05,0.25,0.06,0.34
				c0.01,0.1,0.01,0.15,0.01,0.18l-1.28-0.04v0.02c0-0.07-0.01-0.14-0.03-0.23S55.07,34.07,55,34c-0.07-0.08-0.17-0.14-0.29-0.19
				c-0.13-0.05-0.3-0.07-0.5-0.07s-0.36,0.02-0.48,0.06s-0.21,0.09-0.28,0.14c-0.06,0.06-0.11,0.12-0.13,0.18s-0.03,0.11-0.03,0.15
				v0.06l-0.01,0.01c0,0.06,0.01,0.11,0.02,0.17c0.01,0.04,0.03,0.09,0.04,0.15c0.02,0.05,0.05,0.1,0.09,0.15
				c0.13,0.13,0.35,0.19,0.65,0.19c0.8,0,1.41,0.17,1.84,0.51s0.65,0.83,0.65,1.46c0,0.18-0.04,0.38-0.13,0.59s-0.22,0.41-0.41,0.6
				s-0.43,0.34-0.74,0.46C54.98,38.71,54.62,38.78,54.18,38.78 M63.69,32.52c-0.04,0.53-0.15,1-0.32,1.41
				c-0.07,0.18-0.16,0.35-0.27,0.52s-0.24,0.32-0.39,0.45c-0.15,0.13-0.33,0.23-0.53,0.32c-0.2,0.08-0.44,0.12-0.7,0.12v-2.81h-1.26
				l0.01,6.18h1.26V37.2h1.52c0.25,0.02,0.47,0.08,0.66,0.19c0.08,0.05,0.17,0.11,0.24,0.18c0.08,0.07,0.15,0.16,0.21,0.27
				s0.11,0.23,0.15,0.37s0.06,0.31,0.06,0.49h1.27c-0.03-0.51-0.12-0.97-0.27-1.37c-0.07-0.17-0.15-0.33-0.25-0.5
				s-0.23-0.31-0.38-0.44s-0.32-0.23-0.53-0.31c-0.2-0.08-0.43-0.12-0.7-0.12c0.27-0.2,0.51-0.46,0.73-0.78
				c0.09-0.13,0.18-0.29,0.27-0.47s0.17-0.38,0.24-0.6c0.07-0.22,0.13-0.47,0.17-0.73c0.04-0.27,0.06-0.56,0.06-0.87L63.69,32.52z
				 M73.73,32.52h-1.37l-1.22,2.99l-1.23-2.98h-1.39l1.97,4.21v1.93h1.29v-1.95L73.73,32.52z M82.48,38.74
				c0.43,0,0.83-0.08,1.2-0.25c0.37-0.16,0.7-0.39,0.97-0.67c0.28-0.28,0.5-0.61,0.66-0.98s0.24-0.77,0.24-1.2s-0.08-0.83-0.25-1.2
				c-0.16-0.37-0.38-0.7-0.66-0.98s-0.6-0.5-0.98-0.66c-0.37-0.16-0.77-0.24-1.2-0.24s-0.83,0.08-1.2,0.25
				c-0.37,0.16-0.7,0.38-0.97,0.67c-0.28,0.28-0.5,0.61-0.66,0.98s-0.24,0.77-0.24,1.2s0.08,0.83,0.25,1.2
				c0.16,0.37,0.38,0.7,0.66,0.98s0.6,0.5,0.98,0.66C81.65,38.66,82.05,38.74,82.48,38.74 M82.47,33.84c0.25,0,0.48,0.05,0.7,0.14
				c0.22,0.1,0.41,0.23,0.58,0.39c0.17,0.17,0.3,0.36,0.39,0.58c0.1,0.22,0.14,0.45,0.14,0.71c0,0.25-0.05,0.49-0.14,0.71
				c-0.09,0.22-0.22,0.41-0.39,0.58s-0.36,0.3-0.58,0.39c-0.22,0.1-0.45,0.14-0.7,0.14s-0.49-0.05-0.71-0.14s-0.41-0.23-0.57-0.39
				c-0.16-0.17-0.29-0.36-0.39-0.58s-0.14-0.45-0.14-0.71c0-0.25,0.05-0.49,0.14-0.71c0.09-0.22,0.22-0.41,0.39-0.58
				c0.16-0.17,0.35-0.3,0.57-0.39S82.22,33.84,82.47,33.84 M93.97,38.73l-2.21-6.17h-1.51l-2.19,6.18h1.4l0.32-0.91h2.49l0.32,0.91
				L93.97,38.73z M91,34.34l0.79,2.21h-1.58L91,34.34z M98.76,38.78c0.43,0,0.8-0.06,1.1-0.19c0.3-0.12,0.55-0.28,0.74-0.46
				c0.19-0.19,0.32-0.38,0.41-0.6c0.09-0.21,0.13-0.41,0.13-0.59c0-0.63-0.22-1.11-0.65-1.46c-0.43-0.34-1.05-0.52-1.84-0.51
				c-0.3,0-0.52-0.06-0.65-0.19c-0.05-0.05-0.08-0.09-0.09-0.15c-0.02-0.05-0.03-0.1-0.04-0.15c-0.01-0.06-0.02-0.11-0.02-0.17
				l0.01-0.01v-0.06c0-0.04,0.01-0.09,0.03-0.15s0.07-0.12,0.13-0.18s0.16-0.1,0.28-0.14s0.28-0.06,0.48-0.06
				c0.21,0,0.38,0.02,0.51,0.07s0.23,0.11,0.29,0.19c0.07,0.08,0.11,0.16,0.13,0.24c0.02,0.09,0.03,0.16,0.03,0.23v-0.02l1.28,0.04
				c0-0.02,0-0.08-0.01-0.18s-0.03-0.21-0.06-0.34s-0.09-0.28-0.17-0.44s-0.19-0.31-0.33-0.45c-0.4-0.42-0.97-0.63-1.68-0.63
				c-0.73,0-1.3,0.21-1.71,0.62c-0.11,0.11-0.2,0.23-0.26,0.35c-0.06,0.12-0.11,0.23-0.15,0.34s-0.06,0.2-0.07,0.29
				s-0.02,0.15-0.02,0.19c0,0.04,0,0.12,0,0.21c0,0.1,0.02,0.21,0.05,0.34c0.03,0.13,0.08,0.27,0.14,0.42
				c0.07,0.15,0.16,0.29,0.29,0.42c0.06,0.07,0.14,0.15,0.24,0.22s0.21,0.14,0.34,0.2s0.28,0.11,0.45,0.15s0.36,0.06,0.58,0.06
				c0.28,0,0.52,0.03,0.71,0.08s0.32,0.13,0.4,0.22c0.05,0.06,0.07,0.12,0.08,0.18s0.01,0.13,0.01,0.2
				c-0.04,0.12-0.1,0.21-0.17,0.28s-0.18,0.13-0.33,0.19s-0.34,0.09-0.6,0.09c-0.16,0-0.3-0.02-0.42-0.06
				c-0.12-0.04-0.23-0.09-0.32-0.16c-0.09-0.06-0.15-0.13-0.2-0.19c-0.05-0.07-0.07-0.13-0.07-0.18h-1.28
				c0,0.25,0.06,0.49,0.18,0.72s0.29,0.42,0.5,0.59s0.45,0.3,0.73,0.4C98.15,38.73,98.45,38.78,98.76,38.78 M104.66,32.55l0.01,6.17
				h1.28l-0.01-6.17C105.94,32.55,104.66,32.55,104.66,32.55z M111.69,38.76c0.43,0,0.8-0.06,1.1-0.19c0.3-0.12,0.55-0.28,0.74-0.46
				c0.19-0.19,0.32-0.38,0.41-0.6c0.09-0.21,0.13-0.41,0.13-0.59c0-0.63-0.22-1.11-0.65-1.46c-0.43-0.34-1.05-0.52-1.84-0.51
				c-0.3,0-0.52-0.06-0.65-0.19c-0.05-0.05-0.08-0.09-0.09-0.15c-0.02-0.05-0.03-0.1-0.04-0.15c-0.01-0.06-0.02-0.11-0.02-0.17
				l0.01-0.01v-0.06c0-0.04,0.01-0.09,0.03-0.15s0.07-0.12,0.13-0.18s0.16-0.1,0.28-0.14s0.28-0.06,0.48-0.06
				c0.21,0,0.38,0.02,0.51,0.07s0.23,0.11,0.29,0.19c0.07,0.08,0.11,0.16,0.14,0.24c0.02,0.09,0.03,0.16,0.03,0.23V34.4l1.28,0.04
				c0-0.02,0-0.08-0.01-0.18s-0.03-0.21-0.06-0.34s-0.09-0.28-0.17-0.44s-0.19-0.31-0.33-0.45c-0.4-0.42-0.97-0.63-1.68-0.63
				c-0.73,0-1.3,0.21-1.71,0.62c-0.11,0.11-0.2,0.23-0.26,0.35c-0.06,0.12-0.11,0.23-0.15,0.34s-0.06,0.2-0.07,0.29
				s-0.02,0.15-0.02,0.19c0,0.04,0,0.12,0,0.21c0,0.1,0.02,0.21,0.05,0.34c0.03,0.13,0.08,0.27,0.14,0.42
				c0.07,0.15,0.16,0.29,0.29,0.42c0.06,0.07,0.14,0.15,0.24,0.22s0.21,0.14,0.34,0.2s0.28,0.11,0.45,0.15s0.36,0.06,0.58,0.06
				c0.28,0,0.52,0.03,0.71,0.08s0.33,0.13,0.4,0.22c0.05,0.06,0.07,0.12,0.08,0.18c0.01,0.07,0.01,0.13,0.01,0.2
				c-0.04,0.12-0.1,0.21-0.17,0.28s-0.18,0.13-0.33,0.19s-0.34,0.09-0.6,0.09c-0.16,0-0.3-0.02-0.42-0.06
				c-0.12-0.04-0.23-0.09-0.32-0.16c-0.09-0.06-0.15-0.13-0.2-0.19c-0.05-0.07-0.07-0.13-0.07-0.18h-1.28
				c0,0.25,0.06,0.49,0.18,0.72s0.29,0.42,0.5,0.59s0.45,0.3,0.73,0.4C111.08,38.71,111.37,38.76,111.69,38.76"/>
			<path class="st0" d="M39.58,12.91c0.17,0.04,0.34,0.25,0.34,0.36c0.04,0.48,0.21,1.84,0.21,2.16c0,0.21-0.06,0.4-0.15,0.4
				c-0.19,0-0.31-0.21-0.4-0.44c-0.52-1.53-1.53-2.09-2.89-2.09c-0.94,0-1.99,0.86-1.99,2.09c0,1.28,0.82,2.07,2.78,3.35
				c2.64,1.7,3.12,3.18,3.12,4.27s-0.57,2.3-1.74,3.04c-0.69,0.46-1.93,0.75-2.91,0.75c-1.3,0-2.41-0.25-3.35-0.63
				c-0.1-0.02-0.23-0.34-0.25-0.42c-0.08-0.73-0.34-1.72-0.34-2.28c0-0.25,0.06-0.46,0.23-0.46c0.19,0,0.4,0.38,1,1.63
				c0.46,0.9,1.4,1.53,2.74,1.53c1.3,0,2.2-1.34,2.2-2.26c0-0.94-0.59-1.93-2.32-3.06c-2.2-1.47-3.24-2.6-3.24-4.33
				c0-1.23,0.46-2.05,1.15-2.66c0.69-0.67,1.84-1.09,3.35-1.09C38.08,12.77,38.98,12.89,39.58,12.91z M52.87,16.62h1.5
				c0.63,0,1.27-0.09,2.04-0.09c1.43,0,2.35,0.4,2.88,0.92c0.71,0.69,0.87,1.4,0.87,2.03c0,1.26-0.61,1.9-1.03,2.24
				c-0.48,0.4-1.2,0.6-1.73,0.6c-0.31,0-0.6-0.05-0.74-0.12c-0.18-0.08-0.26-0.17-0.26-0.29c0-0.06,0.09-0.09,0.14-0.08
				c0.11,0.02,0.23,0,0.31,0c0.72,0,1.44-0.75,1.44-2.29c0-1.24-0.69-2.58-2.1-2.58c-0.12,0-0.32,0.03-0.46,0.11
				c-0.12,0.09-0.14,0.31-0.15,0.68c-0.02,0.37-0.02,1.3-0.02,3.15c0,1.41,0.05,3.31,0.06,3.76c0.06,1.04,0.18,1.17,0.98,1.4
				c0.26,0.06,0.37,0.12,0.37,0.2c0,0.09-0.12,0.2-0.35,0.2c-0.38,0-1.47-0.09-2.13-0.09c-0.45,0-1.07,0.05-1.55,0.05
				c-0.31,0-0.43-0.06-0.43-0.18c0-0.11,0.22-0.17,0.32-0.18c0.74-0.18,0.86-0.35,0.87-1.1c0-0.45,0.03-2.27,0.03-4.17
				c0-1.18,0-2.13-0.02-2.7c-0.05-0.66-0.15-0.91-0.86-1.03c-0.22-0.05-0.37-0.12-0.37-0.23C52.5,16.66,52.7,16.62,52.87,16.62z
				 M69.1,21.33c-0.02,0-0.06,0.03-0.02,0.12c0.41,0.83,1.61,3.05,2.41,3.93c0.46,0.49,0.84,0.63,1.29,0.72
				c0.09,0.01,0.23,0.08,0.23,0.17c0,0.08-0.08,0.14-0.2,0.17c-0.15,0.05-0.55,0.06-0.81,0.06c-0.8,0-1.81,0.02-2.62-1.12
				c-0.38-0.54-1.06-1.7-1.72-2.9c-0.34-0.6-0.63-0.8-1.21-0.8c-0.05,0-0.12,0.03-0.17,0.05c-0.03,0.02-0.08,0.08-0.08,0.12
				c0,0.8,0.03,2.5,0.08,3.08c0.08,0.68,0.18,0.86,0.91,1.07c0.25,0.06,0.32,0.17,0.32,0.23c0,0.09-0.17,0.15-0.4,0.15
				c-0.21,0-1.37-0.05-1.95-0.05c-0.66,0-1.38,0.06-1.53,0.06c-0.35,0-0.43-0.09-0.43-0.18c0-0.06,0.11-0.17,0.31-0.22
				c0.77-0.18,0.9-0.37,0.92-0.98c0.03-0.84,0.05-1.84,0.05-4.22c0-2.62,0-2.81-0.03-3.08c-0.08-0.52-0.34-0.61-0.89-0.75
				c-0.22-0.05-0.35-0.09-0.35-0.2c0-0.09,0.18-0.17,0.38-0.17c0.18,0,0.98,0.02,1.1,0.02c0.52,0,1.76-0.08,2.56-0.08
				c1.09,0,1.95,0.14,2.62,0.61c0.52,0.35,0.94,1.1,0.94,1.86C70.81,20.27,70.09,20.96,69.1,21.33z M66.94,16.95
				c-0.17,0-0.35,0.02-0.51,0.11c-0.09,0.06-0.12,0.26-0.15,0.54c-0.08,0.64-0.09,2.56-0.08,3.47c0,0.14,0.14,0.2,0.2,0.23
				c0.11,0.02,0.37,0.02,0.58,0.02c0.28,0,0.77-0.06,1-0.15c0.48-0.23,0.98-0.71,0.98-1.89C68.97,18.26,68.29,16.95,66.94,16.95z
				 M75.29,16.58c0.64,0,1.12,0.05,1.81,0.05c0.23,0,2.16,0.02,2.39,0c1.03,0,1.76-0.05,2.33-0.17c0.08-0.02,0.15,0.11,0.17,0.14
				c0.02,0.05,0.14,1.35,0.14,1.76c0,0.15-0.09,0.32-0.18,0.32c-0.11,0-0.21-0.17-0.28-0.43c-0.2-0.74-0.52-1.04-1.38-1.1
				c-0.34-0.02-1.04-0.03-1.93-0.03c-0.09,0-0.15,0.12-0.18,0.21c-0.06,0.4-0.06,2.42-0.06,3.56c0,0.09,0.08,0.17,0.14,0.17h1.03
				c0.97,0,1.15-0.09,1.46-0.91C80.8,20,80.92,19.84,81,19.84c0.12,0,0.17,0.12,0.15,0.31c0,0.38-0.06,0.74-0.06,1.12
				c0.02,0.44,0.06,1.01,0.08,1.38c0.02,0.21-0.06,0.34-0.15,0.34c-0.11,0-0.2-0.17-0.25-0.32c-0.22-0.66-0.38-0.91-0.91-0.95
				c-0.25-0.02-0.61-0.06-1.56-0.06c-0.09,0-0.17,0.09-0.17,0.25l0.02,2.82c0,0.28,0.08,0.58,0.18,0.71
				c0.26,0.28,0.34,0.35,1.4,0.35c1.78,0,1.98-0.06,2.32-0.51c0.15-0.23,0.4-0.61,0.55-0.89c0.14-0.25,0.28-0.37,0.35-0.37
				c0.09,0,0.14,0.15,0.14,0.25c0,0.25-0.49,1.83-0.57,1.95c-0.06,0.12-0.23,0.25-0.35,0.25c-0.23-0.02-2.65-0.12-5-0.12
				c-0.55,0-1.78,0.11-2.13,0.11c-0.29,0-0.4-0.08-0.4-0.18c0-0.08,0.09-0.15,0.34-0.2c1.03-0.21,1.2-0.34,1.27-1.32
				c0.06-0.66,0.06-1.53,0.06-3.5c0-1.92,0-2.79-0.03-3.25c-0.06-0.69-0.25-0.87-0.97-1.03c-0.31-0.06-0.38-0.14-0.38-0.23
				C74.91,16.66,75,16.58,75.29,16.58z M86.49,16.58c0.84,0,2.16,0.05,2.5,0.05c0.03,0,0.15,0.06,0.15,0.14
				c0.08,0.35,0.44,1.17,0.77,1.86c0.72,1.52,1.73,3.65,2.36,4.82c0.03,0.06,0.14,0,0.17-0.06c0.66-1.27,1.76-3.84,2.49-5.39
				c0.18-0.4,0.26-0.69,0.43-1.12c0.05-0.12,0.11-0.25,0.18-0.25c0.91,0,1.93-0.06,2.47-0.08c0.15,0,0.34,0.06,0.34,0.15
				c0,0.11-0.09,0.2-0.35,0.25c-0.95,0.2-1.03,0.41-1.01,1.38c-0.03,2.22,0.05,4.5,0.11,5.6c0.11,1.75,0.18,1.84,1.14,2.09
				c0.21,0.05,0.31,0.15,0.31,0.23c0,0.11-0.12,0.18-0.4,0.18c-0.22,0-1.55-0.09-2.1-0.09c-0.31,0-1.18,0.06-1.52,0.06
				c-0.25,0-0.38-0.06-0.38-0.2c0-0.09,0.14-0.17,0.37-0.21c0.64-0.15,0.72-0.43,0.74-1.27c0.06-2.29,0.08-4.57,0.01-5.92
				c-0.01-0.05-0.11-0.18-0.14-0.09c-0.25,0.49-1.96,4.26-2.32,5.15c-0.38,0.95-0.61,1.52-0.83,2.13c-0.14,0.4-0.26,0.51-0.38,0.51
				c-0.09,0-0.25-0.26-0.29-0.4c-0.08-0.17-0.29-0.77-0.63-1.57c-0.75-1.7-1.78-3.97-2.45-5.46c-0.09-0.2-0.18,0.06-0.18,0.18
				c-0.09,1.24-0.17,4.1-0.17,5.42c0,0.91,0.34,1.09,1.07,1.32c0.29,0.08,0.37,0.17,0.37,0.25c0,0.09-0.18,0.18-0.37,0.18
				c-0.43,0-0.81-0.08-1.35-0.08c-0.77,0-1.2,0.09-1.5,0.09c-0.2,0-0.37-0.08-0.37-0.2c0-0.11,0.18-0.15,0.32-0.2
				c0.78-0.23,1.04-0.58,1.15-1.63c0.18-1.81,0.37-4.53,0.41-6.28c0-0.18-0.18-0.83-0.51-0.98c-0.23-0.11-0.49-0.15-0.71-0.21
				c-0.08-0.03-0.25-0.11-0.25-0.21C86.14,16.63,86.25,16.58,86.49,16.58z M102.53,18.27c-0.06-0.89-0.06-1.12-0.8-1.3
				c-0.28-0.06-0.37-0.15-0.37-0.23s0.14-0.15,0.37-0.15c0.38,0,1.24,0.05,1.7,0.05c0.74,0,1.21-0.05,1.76-0.05
				c0.17,0,0.37,0.03,0.37,0.15c0,0.11-0.12,0.17-0.34,0.23c-0.58,0.12-0.72,0.2-0.78,0.97c-0.06,0.64-0.09,1.46-0.09,2.81
				c0,2.35,0.05,3.48,0.09,3.99c0.06,0.89,0.22,1.04,0.95,1.26c0.21,0.06,0.31,0.12,0.31,0.25c0,0.11-0.15,0.17-0.37,0.17
				c-0.49,0-1.44-0.06-1.89-0.06s-1.29,0.06-1.83,0.06c-0.18,0-0.35-0.06-0.35-0.2c0-0.09,0.15-0.17,0.38-0.23
				c0.74-0.21,0.83-0.32,0.86-1.18c0.03-0.61,0.03-2.13,0.03-3.64C102.55,20.07,102.56,18.79,102.53,18.27z M108.67,16.57
				c0.6,0,1.3,0.06,1.84,0.06c0.6,0,1.41-0.05,1.75-0.05c0.18,0,0.35,0.06,0.35,0.15s-0.08,0.17-0.34,0.21
				c-0.63,0.14-0.74,0.31-0.83,1.03c-0.06,0.43-0.08,2.73-0.02,4.3c0.06,1.7,0.32,2.27,0.95,2.84c0.57,0.49,1.4,0.6,1.89,0.6
				c0.9,0,2.15-0.28,2.52-2.01c0.18-0.86,0.26-2.42,0.26-4.24c0-0.61-0.06-1.4-0.11-1.61c-0.06-0.4-0.43-0.77-1.15-0.91
				c-0.11-0.02-0.34-0.08-0.34-0.2c0-0.11,0.14-0.17,0.4-0.17c0.38,0,1,0.05,1.47,0.05c0.61,0,0.87-0.05,1.34-0.05
				c0.2,0,0.37,0.06,0.37,0.17c0,0.09-0.12,0.15-0.34,0.2c-0.78,0.18-0.95,0.44-1,1.44c-0.06,1.4-0.09,2.98-0.14,3.77
				c-0.15,2.44-0.75,3.33-1.87,4.02c-0.51,0.29-1.43,0.44-2.01,0.44c-1.34,0-2.36-0.37-2.92-0.89c-0.86-0.78-1.12-1.55-1.15-3.65
				c-0.02-1.63-0.08-4.05-0.11-4.33c-0.03-0.38-0.26-0.68-0.86-0.81c-0.18-0.05-0.34-0.09-0.34-0.23
				C108.3,16.68,108.41,16.57,108.67,16.57z M121.89,16.58c0.84,0,2.16,0.05,2.5,0.05c0.03,0,0.15,0.06,0.15,0.14
				c0.08,0.35,0.44,1.17,0.77,1.86c0.72,1.52,1.73,3.65,2.36,4.82c0.03,0.06,0.14,0,0.17-0.06c0.66-1.27,1.76-3.84,2.49-5.39
				c0.18-0.4,0.26-0.69,0.43-1.12c0.05-0.12,0.11-0.25,0.18-0.25c0.91,0,1.93-0.06,2.47-0.08c0.15,0,0.34,0.06,0.34,0.15
				c0,0.11-0.09,0.2-0.35,0.25c-0.95,0.2-1.03,0.41-1.01,1.38c-0.03,2.22,0.05,4.5,0.11,5.6c0.11,1.75,0.18,1.84,1.14,2.09
				c0.21,0.05,0.31,0.15,0.31,0.23c0,0.11-0.12,0.18-0.4,0.18c-0.22,0-1.55-0.09-2.1-0.09c-0.31,0-1.18,0.06-1.52,0.06
				c-0.25,0-0.38-0.06-0.38-0.2c0-0.09,0.14-0.17,0.37-0.21c0.64-0.15,0.72-0.43,0.74-1.27c0.06-2.29,0.08-4.57,0.01-5.92
				c-0.01-0.05-0.11-0.18-0.14-0.09c-0.25,0.49-1.96,4.26-2.32,5.15c-0.38,0.95-0.61,1.52-0.83,2.13c-0.14,0.4-0.26,0.51-0.38,0.51
				c-0.09,0-0.25-0.26-0.29-0.4c-0.08-0.17-0.29-0.77-0.63-1.57c-0.75-1.7-1.78-3.97-2.45-5.46c-0.09-0.2-0.18,0.06-0.18,0.18
				c-0.09,1.24-0.17,4.1-0.17,5.42c0,0.91,0.34,1.09,1.07,1.32c0.29,0.08,0.37,0.17,0.37,0.25c0,0.09-0.18,0.18-0.37,0.18
				c-0.43,0-0.81-0.08-1.35-0.08c-0.77,0-1.2,0.09-1.5,0.09c-0.2,0-0.37-0.08-0.37-0.2c0-0.11,0.18-0.15,0.32-0.2
				c0.78-0.23,1.04-0.58,1.15-1.63c0.18-1.81,0.37-4.53,0.41-6.28c0-0.18-0.18-0.83-0.51-0.98c-0.23-0.11-0.49-0.15-0.71-0.21
				c-0.08-0.03-0.25-0.11-0.25-0.21C121.53,16.63,121.64,16.58,121.89,16.58z M49.08,21.05h-3.83v0.99h3.83V21.05z"/>
		</g>
		<path class="st0" d="M17.55,0h-2.42H2.51H0v0.37v8.81l2.42,2.42v4.27l1.85,1.85v16.11l-1.85,1.85v4.27L0,42.37v8.81v0.28v0.09
			h17.65v-0.37v-8.81l-2.42-2.42v-4.27l-1.85-1.85V17.72l1.85-1.85V11.6l2.42-2.42V0.37V0.09V0H17.55z M2.41,49.54v1.43H0.98
			L2.41,49.54z M0.57,50.55V42.6l1.84-1.84v7.95L0.57,50.55z M2.41,2.83v7.95L0.57,8.94V0.99L2.41,2.83z M2.41,0.58v1.43L0.98,0.58
			H2.41z M6.68,19.32L4.26,16.9l0,0l-1.27-1.27v-3.45l5.42,5.42L6.68,19.32z M6.39,19.85v11.84l-1.55,1.55V18.29L6.39,19.85z
			 M6.68,32.23l1.72,1.72l-5.42,5.41v-3.45l1.27-1.27l0,0L6.68,32.23z M2.99,11.36V3.41l5.54,5.54v7.95L2.99,11.36z M2.99,48.13
			v-7.95l5.54-5.54v7.95L2.99,48.13z M14.64,11.36L9.11,16.9V8.95l5.53-5.53C14.64,3.42,14.64,11.36,14.64,11.36z M14.64,12.18v3.45
			l-3.69,3.69L9.23,17.6L14.64,12.18z M14.64,40.18v7.95L9.11,42.6v-7.95L14.64,40.18z M14.64,2.59L8.82,8.41L2.99,2.58V0.57h11.65
			L14.64,2.59L14.64,2.59z M14.64,48.95v2.01H2.99v-2.01l5.83-5.83L14.64,48.95z M14.64,35.92v3.45l-5.41-5.41l1.72-1.72l2.26,2.26
			l0.07-0.07l-0.07,0.07L14.64,35.92z M11.24,19.85l1.55-1.55v14.95l-1.55-1.55V19.85z M15.22,48.71v-7.95l1.84,1.84v7.95
			L15.22,48.71z M15.22,50.96v-1.43l1.43,1.43H15.22z M15.22,2.01V0.58h1.43L15.22,2.01z M17.06,0.99v7.95l-1.84,1.84V2.83
			L17.06,0.99z"/>
	</g>
</g>
</svg>
