<?xml version="1.0" encoding="utf-8"?>
<!-- Generator: Adobe Illustrator 23.0.4, SVG Export Plug-In . SVG Version: 6.00 Build 0)  -->
<svg version="1.1" id="Capa_1" xmlns="http://www.w3.org/2000/svg" xmlns:xlink="http://www.w3.org/1999/xlink" x="0px" y="0px"
	 viewBox="0 0 512 512" style="enable-background:new 0 0 512 512;" xml:space="preserve">
<style type="text/css">
	.st0{fill:#FFFFFF;}
</style>
<g>
	<g>
		<path class="st0" d="M501.3,96H10.7C4.8,96,0,100.8,0,106.7s4.8,10.7,10.7,10.7h490.7c5.9,0,10.7-4.8,10.7-10.7S507.2,96,501.3,96
			z"/>
	</g>
</g>
<g>
	<g>
		<path class="st0" d="M501.3,245.3H10.7C4.8,245.3,0,250.1,0,256c0,5.9,4.8,10.7,10.7,10.7h490.7c5.9,0,10.7-4.8,10.7-10.7
			C512,250.1,507.2,245.3,501.3,245.3z"/>
	</g>
</g>
<g>
	<g>
		<path class="st0" d="M501.3,394.7H10.7c-5.9,0-10.7,4.8-10.7,10.7S4.8,416,10.7,416h490.7c5.9,0,10.7-4.8,10.7-10.7
			C512,399.4,507.2,394.7,501.3,394.7z"/>
	</g>
</g>
</svg>
