<?xml version="1.0" encoding="utf-8"?>
<!-- Generator: Adobe Illustrator 23.0.4, SVG Export Plug-In . SVG Version: 6.00 Build 0)  -->
<svg version="1.1" id="Layer_1" xmlns="http://www.w3.org/2000/svg" xmlns:xlink="http://www.w3.org/1999/xlink" x="0px" y="0px"
	 viewBox="0 0 512 512" style="enable-background:new 0 0 512 512;" xml:space="preserve">
<style type="text/css">
	.st0{fill:url(#SVGID_1_);}
	.st1{fill:url(#SVGID_2_);}
</style>
<g>
	<g>
		<g>
			<linearGradient id="SVGID_1_" gradientUnits="userSpaceOnUse" x1="22.3115" y1="256.0001" x2="489.6881" y2="256.0001">
				<stop  offset="0" style="stop-color:#EFC183"/>
				<stop  offset="0.2514" style="stop-color:#EFC387"/>
				<stop  offset="0.5118" style="stop-color:#EFC894"/>
				<stop  offset="0.7755" style="stop-color:#EED0A8"/>
				<stop  offset="1" style="stop-color:#EED9C0"/>
			</linearGradient>
			<path class="st0" d="M421.2,90.7C329.9-0.5,182-0.5,90.7,90.8S-0.5,330,90.8,421.3s239.2,91.2,330.5-0.1
				c43.8-43.8,68.4-103.3,68.4-165.3C489.7,194,465,134.5,421.2,90.7z M376.2,347.8C376.2,347.8,376.2,347.9,376.2,347.8
				L376.2,347.8l-11.9,11.7c-15.3,15.5-37.6,21.9-58.8,16.8c-21.4-5.7-41.7-14.8-60.1-27c-17.2-11-33.1-23.8-47.4-38.2
				c-13.2-13.1-25.1-27.5-35.4-43c-11.3-16.7-20.3-34.8-26.6-53.9c-7.3-22.5-1.2-47.1,15.6-63.6l13.9-13.9c3.9-3.9,10.1-3.9,14,0
				c0,0,0,0,0,0l43.8,43.8c3.9,3.9,3.9,10.1,0,14c0,0,0,0,0,0l-25.7,25.7c-7.4,7.3-8.3,18.9-2.2,27.3c9.3,12.8,19.6,24.8,30.8,35.9
				c12.5,12.5,26,23.9,40.5,34c8.4,5.8,19.7,4.9,27-2.3l24.8-25.2c3.9-3.9,10.1-3.9,14,0c0,0,0,0,0,0l43.9,43.9
				C380.1,337.7,380.1,344,376.2,347.8z"/>
		</g>
	</g>
	<g>
		<linearGradient id="SVGID_2_" gradientUnits="userSpaceOnUse" x1="0" y1="256" x2="512" y2="256">
			<stop  offset="0" style="stop-color:#EFC183"/>
			<stop  offset="0.2514" style="stop-color:#EFC387"/>
			<stop  offset="0.5118" style="stop-color:#EFC894"/>
			<stop  offset="0.7755" style="stop-color:#EED0A8"/>
			<stop  offset="1" style="stop-color:#EED9C0"/>
		</linearGradient>
		<path class="st1" d="M256,512c-68.4,0-132.7-26.6-181-75S0,324.4,0,256S26.6,123.3,75,75S187.6,0,256,0c68.4,0,132.7,26.6,181,75
			s75,112.6,75,181s-26.6,132.7-75,181S324.4,512,256,512z M256,7C118.7,7,7,118.7,7,256c0,137.3,111.7,249,249,249
			c137.3,0,249-111.7,249-249C505,118.7,393.3,7,256,7z"/>
	</g>
</g>
</svg>
